<?xml version="1.0" encoding="utf-8"?>
<!-- Generator: Adobe Illustrator 28.0.0, SVG Export Plug-In . SVG Version: 6.00 Build 0)  -->
<svg version="1.1" id="Capa_1" xmlns="http://www.w3.org/2000/svg" xmlns:xlink="http://www.w3.org/1999/xlink" x="0px" y="0px"
	 viewBox="0 0 361.4 361.4" style="enable-background:new 0 0 361.4 361.4;" xml:space="preserve">
<style type="text/css">
	.st0{fill:#57ABB1;}
</style>
<path class="st0" d="M0,353.6c2.8-11.1,5.6-22.3,8.4-33.4c1.1-4.4,2.1-8.9,3.3-13.3c1.1-4.4,3.8-6.4,7.5-5.5
	c3.6,0.8,5.2,3.9,4.1,8.3c-2.7,11.3-5.5,22.6-8.2,33.9c-0.1,0.4-0.1,0.9-0.3,2c16.8-6.4,33.2-12.6,49.5-18.7
	c-4.4-5-8.9-9.7-12.8-14.8c-12.1-16-17.8-34.2-19.1-54c-0.6-9-1.5-18-2.2-27.1c-0.4-5.1,1.7-7.9,5.7-8c3.9-0.1,5.9,2.4,6.3,7.2
	c1.3,14.1,1.9,28.5,4.4,42.4c3.5,19.7,14.2,35.6,29.6,48.2c0.6,0.5,1.7,0.7,2.4,0.4c22.6-8.5,45.2-17.1,67.8-25.7
	c0.1,0,0.1-0.2,0.2-0.5c-2.4-1.3-4.9-2.5-7.4-3.8c-52.2-28.7-83.8-72.4-94.9-130.9c-0.4-2-0.2-4.8,0.9-6.3c1.1-1.5,3.7-2.4,5.7-2.4
	c3.1,0.1,4.5,2.6,5.1,5.4c1.4,6.4,2.4,12.9,4.3,19.2c15.9,53,49.5,90.1,100.3,111.6c1.3,0.6,3.1,1.1,4.3,0.6
	c13.5-5,27-10.2,40.5-15.3c-6.9-3.3-13.7-6.2-20.2-9.7c-35-19-63.5-45.5-88.2-76.4c-12.8-15.9-24.1-32.8-31.5-51.9
	c-3.7-9.5-6.4-19.2-4.7-29.6c2.4-13.8,16.5-23,30.1-19.5c3.4,0.9,5.2,3.4,4.8,6.7c-0.4,3.2-3.1,5.2-6.6,5c-1.3-0.1-2.6-0.3-3.9-0.2
	c-8,0.3-12.7,4.9-12.9,12.9c-0.3,7.4,1.9,14.4,4.6,21.2c7.6,19,19.1,35.6,32,51.2c24.2,29.4,52.1,54.6,86.1,72.3
	c8.8,4.6,17.9,8.3,28,9.1c2.5,0.2,5.2,0.1,7.7-0.5c4.9-1,7.6-4.5,8.2-9.8c0.8-7-0.9-13.5-3.1-20c-0.5-1.6-1.2-3.1-1.3-4.7
	c-0.3-3.1,1.1-5.3,4.1-6.2c2.9-0.9,5.7,0,6.9,2.8c4.5,10.8,7.5,21.9,4.6,33.6c-1.9,7.5-6.6,12.6-13.9,15.3
	c-28.2,10.6-56.5,21.2-84.7,31.8c-47.2,17.8-94.4,35.7-141.7,53.6c-0.9,0.3-1.6,0.8-2.4,1.3H0C0,358.8,0,356.2,0,353.6L0,353.6z"/>
<path class="st0" d="M348.7,361.4c-4.8-3.1-5.3-5.2-2.8-10.6c4.1-8.6,4.2-17.2,0.2-25.9c-0.5-1-1.1-1.9-1.7-2.9
	c-1.2,4.2-1.9,8.2-3.5,12c-3.7,8.9-10.7,13.9-20.3,14.6c-10.1,0.7-17.9-3.5-22.8-12.4c-4.7-8.6-4.2-17.2,1.4-25.3
	c4.9-7,11.6-11.5,19.8-13.8c0.8-0.2,1.5-0.5,2.6-0.9c-7.9-9-17.2-15.7-28-20.1c-5.3-2.1-10.9-3.6-16.5-5c-4.3-1.1-6.7-3.7-6.1-7.2
	c0.7-3.8,4-5.6,8.5-4.7c24.9,5,44.5,18.1,59,39c1.4,2.1,3.3,4,5.3,5.5c16.6,12.1,22,35.7,12,53.6c-0.9,1.5-2.5,2.7-3.8,4
	L348.7,361.4L348.7,361.4z M332.4,320.2c-0.1-0.1-0.3-0.1-0.4-0.2c-0.2-1.6-0.2-3.3-0.5-4.9c-1.4-6.2-4.5-7.9-10.6-6
	c-5,1.6-9,4.5-11.9,9c-3.8,5.8-2.1,13.4,3.7,16.9c6,3.6,13.8,1.6,16.9-4.8C331,327.1,331.5,323.6,332.4,320.2L332.4,320.2z"/>
<path class="st0" d="M37.4,0c1.9,2.1,3.8,4.2,5.6,6.3c0.6,0.7,1,1.6,1.2,2.5c2.2,9.2,8.6,12.5,17.4,12.4c1.7,0,3.7,0.1,5.2,0.8
	c1.9,0.9,4.3,2.3,4.8,3.9c0.6,1.8-0.2,4.8-1.4,6.3C67,36.1,63,39.3,59.6,43c-0.9,1-1.5,2.9-1.3,4.2c0.5,4.5,1.5,9,2.3,13.5
	c0.5,2.8,0.4,5.5-2.2,7.3c-2.5,1.8-5,1.3-7.6-0.1c-4-2.2-8-4.5-12.2-6.3c-1.3-0.6-3.4-0.6-4.8,0c-4.2,1.9-8.2,4.1-12.2,6.3
	c-2.6,1.4-5.1,2-7.6,0.1c-2.4-1.7-2.7-4.2-2.2-6.9c0.9-4.6,1.7-9.2,2.2-13.9c0.1-1.5-0.5-3.4-1.4-4.5C8.6,38.3,4.2,34,0,29.6
	c0-1.2,0-2.4,0-3.5c1.7-2.8,4-4.2,7.4-4.5c4.3-0.4,8.6-1.1,12.9-2c1.4-0.3,3-1.4,3.6-2.5c2.1-3.5,3.5-7.5,5.6-10.9
	C31,3.9,33.3,2,35.3,0C36,0,36.7,0,37.4,0L37.4,0z M53,32.1c-9.3,0.6-14.3-3.9-17-12.3c-2.2,9-8,12.5-16.8,12.5
	c7.6,4.9,9.3,11.3,6.1,19.5c4.2-1.7,7.6-4.1,10.9-4.1c3.3,0,6.7,2.5,10.9,4.2C43.4,43.6,45.6,37.2,53,32.1z"/>
<path class="st0" d="M135.5,0c3.3,1.7,6.5,3.5,8.1,7.3c2.5,6-0.2,13-6.1,15.7c-5.8,2.6-12.7,0.3-15.6-5.4c-3-5.8-0.8-12.9,4.9-16.1
	c1-0.6,2.1-1,3.1-1.5C131.8,0,133.6,0,135.5,0L135.5,0z"/>
<path class="st0" d="M361.4,122.1c-2.8,4.1-10.2,6.2-14.6,3.6c-1.6-1-3.3-3.4-3.3-5.2s1.6-4.3,3.2-5.3c4.2-2.6,11.7-0.6,14.7,3.4
	V122.1z"/>
<path class="st0" d="M302.8,0c4.1,2.7,6.2,11.3,3.3,15.1c-1.1,1.4-3.5,2.7-5.2,2.6c-1.7-0.1-4-1.6-4.9-3.2
	c-2.6-4.3-0.6-11.8,3.4-14.6H302.8L302.8,0z"/>
<path class="st0" d="M320,113.7c1.6,1.6,4,3,4.6,4.9c0.5,1.8-0.7,4.3-1.6,6.2c-0.5,1-2.1,1.4-3.2,2c-40.8,19.4-81.6,38.8-122.4,58.2
	c-2,0.9-4.7,1.6-6.6,0.9c-1.6-0.6-3.2-3-3.7-4.9c-0.7-2.8,1.1-4.9,3.7-6.1c8.4-4,16.7-8,25.1-12c32.8-15.6,65.7-31.3,98.5-46.9
	C315.9,115.3,317.5,114.8,320,113.7L320,113.7z"/>
<path class="st0" d="M150.6,80.5c0,24.2-4.8,47.3-14,69.6c-2.7,6.6-5.5,13.2-8.3,19.8c-1.7,4.1-5,5.6-8.4,4.1
	c-3.2-1.4-4.2-4.8-2.7-8.7c5.3-14.1,11.5-28,15.7-42.5c7.2-25.1,7.4-50.8,2.2-76.4c-0.1-0.7-0.3-1.4-0.4-2.1
	c-0.8-4.4,0.9-7.4,4.5-8.2c3.5-0.7,6.6,1.5,7.2,5.9c1.9,12.8,3.4,25.5,5.1,38.3C151.3,80.5,150.9,80.5,150.6,80.5L150.6,80.5z"/>
<path class="st0" d="M225.8,198.4c31.2,0.2,53.9,4.1,75.8,12.2c2,0.7,4.3,2.5,5,4.4c0.6,1.6-0.2,4.8-1.5,5.9
	c-1.6,1.3-4.6,1.7-6.7,1.2c-6.7-1.7-13.2-4.3-19.9-6c-27.1-6.8-54.4-7.1-81.8-1.9c-4.6,0.9-9.2,1.6-13.9,2.4
	c-4.1,0.7-7.2-1.2-7.8-4.7c-0.6-3.8,1.6-6.4,5.9-7.2C198.4,201.6,215.8,198.3,225.8,198.4L225.8,198.4z"/>
<path class="st0" d="M265,87.2c0,4.7,0.1,9.4,0,14.1c-0.1,4.8-2.1,7-6.8,7.1c-9.5,0.1-19.1,0.1-28.6,0c-4.6-0.1-6.7-2.2-6.8-6.8
	c-0.1-9.6-0.1-19.3,0-28.9c0.1-4.4,2.2-6.4,6.6-6.5c9.6-0.1,19.3-0.1,28.9,0c4.4,0,6.5,2.1,6.6,6.5C265,77.5,264.9,82.3,265,87.2
	L265,87.2z M252.6,96.2V78.5h-17.5v17.7H252.6z"/>
<path class="st0" d="M217.6,120.2c-1.4,2.2-2.1,4.1-3.4,5.2c-19.7,17.8-39.4,35.6-59.2,53.2c-3,2.7-6.4,2.6-8.8,0
	c-2.4-2.6-2.2-6.3,0.9-9c19.6-17.7,39.3-35.4,58.9-53c2.1-1.9,4.5-3.1,7-1.5C214.8,116.3,216,118.3,217.6,120.2L217.6,120.2z"/>
<path class="st0" d="M331.1,252.8c-10-0.1-17.8-8-17.8-18c0-10.1,8.1-18.2,18.1-18.1c9.8,0.1,17.9,8.2,17.9,18.1
	C349.3,244.8,341.2,252.9,331.1,252.8L331.1,252.8z M331.1,228.8c-3.3,0.1-5.9,2.8-5.8,6.2c0.1,3.4,2.8,5.9,6.2,5.8
	c3.2-0.1,5.8-2.8,5.8-5.9C337.2,231.6,334.4,228.7,331.1,228.8z"/>
<path class="st0" d="M204.7,66.3c0,9.9-8,17.8-18,17.9c-10.1,0-18.1-8-18.1-18.1c0.1-9.8,8.1-17.9,18-18
	C196.6,48.1,204.8,56.3,204.7,66.3L204.7,66.3z M186.7,72.2c3.4,0,6-2.6,6-6c0-3.2-2.6-5.8-5.8-6c-3.2-0.1-6.1,2.6-6.2,5.9
	C180.6,69.4,183.3,72.1,186.7,72.2L186.7,72.2z"/>
<path class="st0" d="M331.1,93.5c0,6-1.9,8.9-6,8.8c-4-0.1-6-3-6-9c0-1.4-0.1-2.8,0.2-4.2c0.7-3.2,3.4-5.1,6.5-4.7
	c3.2,0.4,5,2.3,5.3,5.6C331.2,91.2,331.1,92.3,331.1,93.5L331.1,93.5z"/>
<path class="st0" d="M316.2,18.2c6.1-0.1,9,1.9,9,5.9c0,4-3,6.1-8.9,6.1c-1.4,0-2.8,0-4.2-0.3c-3.2-0.6-4.9-2.8-4.9-6
	c-0.1-3,2.3-5.4,5.5-5.7C313.9,18.1,315,18.2,316.2,18.2L316.2,18.2z"/>
<path class="st0" d="M352.4,98c0,4.9-6.3,11.6-9.9,11.2c-1.8-0.2-4.2-1.4-5.1-2.9c-0.9-1.5-1-4.3-0.1-5.8c1.5-2.5,3.8-4.8,6.3-6.4
	c1.4-0.9,4.2-0.8,5.8,0C350.9,95,351.8,97.2,352.4,98z"/>
<path class="st0" d="M331.1,147.5c0,0.9,0,1.9,0,2.8c-0.2,3.6-2.6,6.2-5.8,6.2c-3.2,0.1-5.9-2.4-6.1-6c-0.1-1.9-0.1-3.8,0-5.6
	c0.2-3.8,2.8-6.5,6.1-6.4c3.4,0,5.8,2.6,5.9,6.6C331.2,145.8,331.2,146.7,331.1,147.5L331.1,147.5z"/>
<path class="st0" d="M307.1,39.3c0,0.7,0,1.4,0,2.1c-0.1,4.2-2.4,6.7-6.1,6.6c-3.5-0.1-5.8-2.5-5.9-6.5c-0.1-1.6-0.1-3.3,0-4.9
	c0.2-4,2.5-6.4,6-6.4c3.6,0,5.9,2.4,6,6.3C307.1,37.5,307.1,38.4,307.1,39.3L307.1,39.3z"/>
<path class="st0" d="M286.2,18.1c0.7,0,1.4,0,2.1,0c4.2,0.1,6.8,2.4,6.8,6c0,3.5-2.6,5.9-6.8,6.1c-1.8,0.1-3.5,0.1-5.3-0.1
	c-3.7-0.4-6-2.8-5.9-6.2c0.1-3.4,2.5-5.6,6.2-5.8C284.3,18.1,285.2,18.1,286.2,18.1L286.2,18.1L286.2,18.1z"/>
<path class="st0" d="M309.2,109.3c-4.8-0.1-11.5-6.6-11.1-10.1c0.2-1.8,1.5-4.2,3.1-5c1.5-0.9,4.3-0.9,5.8,0
	c2.4,1.5,4.7,3.7,6.1,6.1c0.9,1.5,0.8,4.2,0,5.8C312.3,107.8,310.1,108.7,309.2,109.3L309.2,109.3z"/>
<path class="st0" d="M341.1,131.5c5,0,11.4,6.4,11.2,10.3c-0.1,4.5-5.1,7.4-8.8,4.9c-2.4-1.6-4.6-3.8-6.1-6.2
	c-0.9-1.5-0.9-4.2-0.1-5.9C338,133.1,340.3,132.2,341.1,131.5L341.1,131.5z"/>
</svg>
