<?xml version="1.0" encoding="UTF-8"?><svg id="Capa_1" xmlns="http://www.w3.org/2000/svg" viewBox="0 0 5.74 5.75"><defs><style>.cls-1{fill-rule:evenodd;}.cls-1,.cls-2{fill:#fff;stroke-width:0px;}</style></defs><path class="cls-2" d="M0,5.75l.41-1.54c-.23-.42-.36-.89-.36-1.37C.06,1.27,1.34,0,2.9,0s2.84,1.28,2.84,2.84-1.28,2.84-2.84,2.84c-.47,0-.94-.12-1.35-.34l-1.55.41h0ZM1.64,4.76l.1.06c.36.21.77.33,1.18.33,1.27,0,2.31-1.03,2.31-2.31S4.2.53,2.92.53.61,1.56.61,2.84c0,.42.12.83.34,1.2l.06.1-.23.86.86-.23h0Z"/><path class="cls-1" d="M3.96,3.23c-.12-.07-.27-.15-.41-.09-.11.04-.17.21-.24.29-.04.04-.08.05-.13.03-.4-.16-.7-.42-.92-.79-.04-.06-.03-.1.01-.15.07-.08.15-.17.17-.27s-.03-.23-.07-.32c-.06-.12-.12-.29-.24-.36-.11-.06-.26-.03-.35.05-.17.14-.25.35-.25.57,0,.06,0,.12.02.18.03.14.1.27.17.4.06.09.12.19.18.27.21.29.48.54.78.73.15.09.32.18.49.23.19.06.36.13.57.09.22-.04.43-.17.52-.38.03-.06.04-.13.02-.2-.03-.13-.21-.21-.32-.28Z"/></svg>